<?xml version="1.0" encoding="UTF-8" standalone="no"?>
<!-- Created with Inkscape (http://www.inkscape.org/) -->

<svg
   width="72.296738mm"
   height="67.733322mm"
   viewBox="0 0 72.296738 67.733322"
   version="1.1"
   id="svg5"
   xml:space="preserve"
   inkscape:export-filename="moustique_blanc.svg"
   inkscape:export-xdpi="96"
   inkscape:export-ydpi="96"
   xmlns:inkscape="http://www.inkscape.org/namespaces/inkscape"
   xmlns:sodipodi="http://sodipodi.sourceforge.net/DTD/sodipodi-0.dtd"
   xmlns="http://www.w3.org/2000/svg"
   xmlns:svg="http://www.w3.org/2000/svg"><sodipodi:namedview
     id="namedview7"
     pagecolor="#505050"
     bordercolor="#eeeeee"
     borderopacity="1"
     inkscape:showpageshadow="0"
     inkscape:pageopacity="0"
     inkscape:pagecheckerboard="0"
     inkscape:deskcolor="#505050"
     inkscape:document-units="mm"
     showgrid="false"
     inkscape:zoom="0.914906"
     inkscape:cx="397.85508"
     inkscape:cy="562.35285"
     inkscape:window-width="1920"
     inkscape:window-height="1003"
     inkscape:window-x="0"
     inkscape:window-y="0"
     inkscape:window-maximized="1"
     inkscape:current-layer="layer1" /><defs
     id="defs2" /><g
     inkscape:label="Calque 1"
     inkscape:groupmode="layer"
     id="layer1"
     transform="translate(-69.117448,-114.92253)"><path
       style="fill:#ffffff;fill-opacity:1;stroke-width:0.264583"
       d="m 90.065991,182.32513 c -0.05664,-0.1819 -0.532357,-4.8551 -1.057158,-10.38489 -0.524799,-5.5298 -1.010163,-10.39476 -1.078584,-10.81104 -0.107915,-0.65657 0.775884,-1.97152 6.668665,-9.92188 3.73619,-5.04075 7.086196,-9.5552 7.444466,-10.0321 0.35827,-0.4769 0.59314,-0.92535 0.52194,-0.99656 -0.0712,-0.0712 -4.230776,2.14929 -9.243507,4.93443 l -9.114048,5.06389 -5.801842,9.29413 c -8.027512,12.85949 -8.577632,13.70064 -8.850161,13.53221 -0.132146,-0.0817 3.021704,-5.3549 7.008554,-11.71829 l 7.248818,-11.5698 9.271594,-5.15937 c 5.099376,-2.83766 9.271612,-5.30162 9.271632,-5.47547 3e-5,-0.20448 -0.49042,-0.0917 -1.38902,0.31953 -3.962906,1.8134 -14.907121,3.37672 -23.87864,3.41094 -5.395731,0.0206 -7.120484,-0.20808 -7.806783,-1.03503 -0.460574,-0.55495 0.008,-1.05079 1.891648,-2.00165 6.152316,-3.10568 27.786039,-6.42266 30.465275,-4.67108 0.39466,0.25802 0.73542,0.34732 0.75725,0.19844 0.0218,-0.14887 0.0516,-0.39557 0.0661,-0.54821 0.0145,-0.15264 -2.14508,-1.67145 -4.799176,-3.37513 l -4.8256,-3.0976 -3.971753,-6.45644 c -2.184464,-3.55104 -3.971753,-6.55661 -3.971753,-6.67904 0,-0.72846 0.817871,0.43579 4.37396,6.22639 l 3.960415,6.44899 4.853561,3.11746 c 3.644766,2.34105 4.907446,3.03027 5.069926,2.76737 0.119,-0.19255 0.12299,-0.59815 0.009,-0.90134 -0.4262,-1.13221 0.26786,-1.9284 1.53154,-1.75689 0.27474,0.0373 0.32578,-0.40316 0.23398,-2.01917 -0.0646,-1.13677 -0.16317,-2.30499 -0.2191,-2.59603 -0.0798,-0.41517 0.0408,-0.52917 0.55977,-0.52917 0.51897,0 0.63956,0.114 0.55978,0.52917 -0.0559,0.29104 -0.15453,1.45926 -0.2191,2.59603 -0.0918,1.61601 -0.0408,2.05646 0.23398,2.01917 1.26367,-0.17151 1.95774,0.62468 1.53154,1.75689 -0.11413,0.30319 -0.11015,0.70879 0.009,0.90134 0.16248,0.2629 1.42513,-0.42624 5.06993,-2.76711 l 4.85356,-3.1172 3.95443,-6.44925 c 2.17493,-3.54708 4.0629,-6.44924 4.19549,-6.44924 0.40686,0 0.0237,0.6947 -3.94974,7.16204 l -3.84226,6.25378 -4.89208,3.11175 c -3.51392,2.23514 -4.85009,3.22118 -4.74302,3.50019 0.082,0.21364 0.14905,0.4291 0.14905,0.4788 0,0.0497 0.38695,-0.10886 0.8599,-0.35236 3.25716,-1.67705 24.32727,1.65736 30.61878,4.84551 1.59826,0.8099 2.03805,1.32073 1.59581,1.85359 -0.67736,0.81618 -2.42009,1.05246 -7.67449,1.04051 -8.977,-0.0204 -20.02044,-1.5892 -23.99433,-3.4085 -0.92016,-0.42126 -1.40567,-0.5331 -1.40567,-0.32379 0,0.17585 4.17244,2.63982 9.27209,5.47546 l 9.27208,5.15572 7.24416,11.57241 c 3.98428,6.36482 7.13793,11.63805 7.0081,11.71828 -0.26811,0.16571 -0.83226,-0.69746 -8.84421,-13.53204 l -5.80011,-9.29136 -9.11215,-5.07029 c -5.01168,-2.78866 -9.1724,-5.01004 -9.24605,-4.93639 -0.0736,0.0736 -0.0161,0.2856 0.12782,0.47102 0.14394,0.18542 3.48354,4.68412 7.42134,9.9971 l 7.15963,9.65998 -1.10024,11.08792 c -0.78877,7.94894 -1.19573,11.11975 -1.43755,11.20035 -0.24994,0.0833 -0.29985,-0.15085 -0.19272,-0.90414 0.42013,-2.954 2.01098,-20.18164 1.92631,-20.86033 -0.11918,-0.95526 -14.23163,-20.07792 -14.56868,-19.74086 -0.1196,0.1196 -0.0301,1.02549 0.19898,2.0131 1.49219,6.43421 0.98786,18.53646 -0.939,22.53276 -1.87151,3.8815 -3.93719,-0.9793 -4.36572,-10.27305 -0.1886,-4.09035 0.18149,-9.4794 0.84849,-12.35548 0.21683,-0.93493 0.29503,-1.79908 0.17378,-1.92033 -0.33937,-0.33936 -14.447681,18.78345 -14.566505,19.74386 -0.0835,0.67489 1.505489,17.88972 1.923227,20.83593 0.08541,0.60237 0.03224,0.99219 -0.135335,0.99219 -0.151807,0 -0.322352,-0.14883 -0.378989,-0.33073 z m 16.474719,-18.78542 c 0.0743,-0.39167 -0.11902,-0.46302 -1.25449,-0.46302 -0.94221,0 -1.34232,0.10516 -1.34232,0.35278 0,0.58665 0.32673,0.73421 1.44333,0.65186 0.76596,-0.0565 1.09035,-0.20881 1.15348,-0.54162 z m 0.52783,-2.24895 c -0.074,-0.3841 -0.38108,-0.46302 -1.80172,-0.46302 -1.42064,0 -1.72774,0.0789 -1.80171,0.46302 -0.0782,0.40609 0.14329,0.46302 1.80171,0.46302 1.65843,0 1.87993,-0.0569 1.80172,-0.46302 z m 0.001,-2.24896 c 0.0773,-0.40565 -0.14371,-0.46302 -1.78328,-0.46302 -1.38319,0 -1.87149,0.092 -1.87149,0.35277 0,0.61823 0.33783,0.72975 1.97086,0.6506 1.27237,-0.0617 1.61358,-0.17115 1.68391,-0.54035 z m -0.001,-2.24896 c -0.074,-0.3841 -0.38108,-0.46302 -1.80172,-0.46302 -1.42064,0 -1.72774,0.0789 -1.80171,0.46302 -0.0782,0.4061 0.14329,0.46302 1.80171,0.46302 1.65843,0 1.87993,-0.0569 1.80172,-0.46302 z m 0.2654,-2.24896 c 0.0782,-0.41003 -0.1561,-0.46302 -2.04772,-0.46302 -1.60367,0 -2.13607,0.0879 -2.13607,0.35278 0,0.6283 0.34225,0.72783 2.2346,0.6499 1.52548,-0.0628 1.87676,-0.16009 1.94919,-0.53966 z m -7.9e-4,-2.24896 c -0.0754,-0.39171 -0.39368,-0.46302 -2.0663,-0.46302 -1.67263,0 -1.99087,0.0713 -2.0663,0.46302 -0.079,0.41038 0.15589,0.46302 2.0663,0.46302 1.9104,0 2.14533,-0.0526 2.0663,-0.46302 z m -0.26362,-2.24896 c 0.0773,-0.40564 -0.1437,-0.46302 -1.78328,-0.46302 -1.38319,0 -1.87149,0.0921 -1.87149,0.35278 0,0.61822 0.33783,0.72974 1.97086,0.6506 1.27237,-0.0617 1.61358,-0.17116 1.68391,-0.54036 z m -0.001,-2.24895 c -0.074,-0.3841 -0.38108,-0.46303 -1.80171,-0.46303 -1.42065,0 -1.72775,0.0789 -1.80172,0.46303 -0.0782,0.40609 0.14329,0.46302 1.80172,0.46302 1.65842,0 1.87992,-0.0569 1.80171,-0.46302 z m -0.36815,-1.81425 c 0.23026,-0.0883 0.41859,-0.32645 0.41859,-0.52917 0,-0.27993 -0.4454,-0.36856 -1.85209,-0.36856 -1.42149,0 -1.85208,0.0871 -1.85208,0.37482 0,0.20616 0.14883,0.43488 0.33073,0.50828 0.47845,0.19306 2.46432,0.20289 2.95492,0.0146 z m -0.16095,-2.68367 c -0.0691,-0.35867 -0.35588,-0.46302 -1.27255,-0.46302 -0.91667,0 -1.20347,0.10435 -1.27255,0.46302 -0.0756,0.39255 0.1181,0.46302 1.27255,0.46302 1.15446,0 1.34815,-0.0705 1.27255,-0.46302 z m -1.80178,-11.32363 c 0,-0.49712 -0.52203,-0.76173 -0.85193,-0.43183 -0.39511,0.39511 -0.0475,1.12994 0.44504,0.94092 0.22379,-0.0859 0.40689,-0.31497 0.40689,-0.50909 z m 2.02782,-0.23411 c -0.0875,-0.22806 -0.28566,-0.41466 -0.44031,-0.41466 -0.4549,0 -0.63906,0.8269 -0.23921,1.07402 0.46951,0.29017 0.88805,-0.11594 0.67952,-0.65936 z"
       id="path2671" /></g></svg>
